<?xml version="1.0" encoding="utf-8"?>
<!-- Generator: Adobe Illustrator 19.2.0, SVG Export Plug-In . SVG Version: 6.00 Build 0)  -->
<svg fill="#160fec" version="1.1" id="harddisk" xmlns="http://www.w3.org/2000/svg" xmlns:xlink="http://www.w3.org/1999/xlink" x="0px" y="0px"
	 viewBox="0 0 188 228" enable-background="new 0 0 188 228" xml:space="preserve">
<g>
	<path fill="none" d="M94,104c9.9255,0,18-8.0744,18-18c0-9.9256-8.0745-18-18-18c-9.9257,0-18,8.0744-18,18
		C76,95.9256,84.0743,104,94,104z"/>
	<path fill="none" d="M38.9587,163.008c-0.1892,0.0976-0.3864,0.1756-0.5876,0.242c-1.2188,0.3908-2.3631,0.9728-3.4004,1.7264
		c-5.3556,3.8908-6.5467,11.4104-2.6584,16.762c3.8928,5.3592,11.4084,6.5584,16.7637,2.656
		c1.0371-0.7536,1.9455-1.664,2.6915-2.6992c0.1248-0.1756,0.2636-0.336,0.414-0.488l50.26-50.418L38.9587,163.008z M40,184
		c-4.412,0-8-3.59-8-8s3.588-8,8-8s8,3.59,8,8S44.412,184,40,184z"/>
	<path fill="none" d="M65.0091,140.8156l56.104-28.4756c1.76-0.8828,3.8928-0.3752,5.0469,1.2148
		c1.1543,1.5896,0.9843,3.7852-0.404,5.1756l-29.04,29.132C129.6391,146.4256,156,119.2704,156,86c0-34.1876-27.8125-62-62-62
		c-34.1877,0-62,27.8124-62,62C32,109.0352,44.6467,130.0204,65.0091,140.8156z M94,60c14.336,0,26,11.664,26,26s-11.664,26-26,26
		s-26-11.664-26-26S79.664,60,94,60z"/>
	<path fill="none" d="M8,220h172V8H8V220z M168,216c-4.412,0-8-3.59-8-8s3.588-8,8-8s8,3.59,8,8S172.412,216,168,216z M168,12
		c4.412,0,8,3.59,8,8s-3.588,8-8,8s-8-3.59-8-8S163.588,12,168,12z M94,16c38.5975,0,70,31.4024,70,70s-31.4025,70-70,70
		c-1.508,0-3.004-0.0508-4.4865-0.1408l0.0505-0.822l-31.5037,31.6036c-1.2048,1.6172-2.6443,3.0348-4.2812,4.2264
		c-3.5428,2.5744-7.656,3.8124-11.7304,3.8124c-6.1932,0-12.3007-2.8592-16.2087-8.238c-6.4809-8.922-4.4945-21.4532,4.4255-27.9336
		c1.6348-1.1916,3.4296-2.1212,5.342-2.7696L56.532,145.118C36.34,132.3228,24,110.1676,24,86C24,47.4024,55.4023,16,94,16z M20,12
		c4.412,0,8,3.59,8,8s-3.588,8-8,8s-8-3.59-8-8S15.588,12,20,12z M20,200c4.412,0,8,3.59,8,8s-3.588,8-8,8s-8-3.59-8-8
		S15.588,200,20,200z"/>
	<path d="M0,0v228h188V0H0z M180,220H8V8h172V220z"/>
	<path d="M56.532,145.118l-20.9245,10.6204c-1.9124,0.6484-3.7072,1.578-5.342,2.7696c-8.92,6.4804-10.9064,19.0116-4.4255,27.9336
		c3.908,5.3788,10.0155,8.238,16.2087,8.238c4.0744,0,8.1876-1.238,11.7304-3.8124c1.6369-1.1916,3.0764-2.6092,4.2812-4.2264
		l31.5037-31.6036l-0.0505,0.822C90.996,155.9492,92.492,156,94,156c38.5975,0,70-31.4024,70-70s-31.4025-70-70-70
		c-38.5977,0-70,31.4024-70,70C24,110.1676,36.34,132.3228,56.532,145.118z M52.1815,181.2072
		c-0.1504,0.152-0.2892,0.3124-0.414,0.488c-0.746,1.0352-1.6544,1.9456-2.6915,2.6992c-5.3553,3.9024-12.8709,2.7032-16.7637-2.656
		c-3.8883-5.3516-2.6972-12.8712,2.6584-16.762c1.0373-0.7536,2.1816-1.3356,3.4004-1.7264
		c0.2012-0.0664,0.3984-0.1444,0.5876-0.242l63.4828-32.2188L52.1815,181.2072z M94,24c34.1875,0,62,27.8124,62,62
		c0,33.2704-26.3609,60.4256-59.284,61.8624l29.04-29.132c1.3883-1.3904,1.5583-3.586,0.404-5.1756
		c-1.1541-1.59-3.2869-2.0976-5.0469-1.2148l-56.104,28.4756C44.6467,130.0204,32,109.0352,32,86C32,51.8124,59.8123,24,94,24z"/>
	<path d="M94,112c14.336,0,26-11.664,26-26s-11.664-26-26-26S68,71.664,68,86S79.664,112,94,112z M94,68c9.9255,0,18,8.0744,18,18
		c0,9.9256-8.0745,18-18,18c-9.9257,0-18-8.0744-18-18C76,76.0744,84.0743,68,94,68z"/>
	<path d="M168,28c4.412,0,8-3.59,8-8s-3.588-8-8-8s-8,3.59-8,8S163.588,28,168,28z"/>
	<path d="M168,200c-4.412,0-8,3.59-8,8s3.588,8,8,8s8-3.59,8-8S172.412,200,168,200z"/>
	<path d="M20,28c4.412,0,8-3.59,8-8s-3.588-8-8-8s-8,3.59-8,8S15.588,28,20,28z"/>
	<path d="M20,216c4.412,0,8-3.59,8-8s-3.588-8-8-8s-8,3.59-8,8S15.588,216,20,216z"/>
	<path d="M40,168c-4.412,0-8,3.59-8,8s3.588,8,8,8s8-3.59,8-8S44.412,168,40,168z"/>
</g>
</svg>
