<svg fill="#f214de" id="Layer_1" data-name="Layer 1" xmlns="http://www.w3.org/2000/svg" viewBox="0 0 96 96"><path d="M88.43,83.75H7.57A5.58,5.58,0,0,1,2,78.18V45.9a5.58,5.58,0,0,1,5.57-5.57H88.43A5.58,5.58,0,0,1,94,45.9V78.18A5.58,5.58,0,0,1,88.43,83.75ZM7.57,42.33A3.57,3.57,0,0,0,4,45.9V78.18a3.58,3.58,0,0,0,3.57,3.57H88.43A3.58,3.58,0,0,0,92,78.18V45.9a3.57,3.57,0,0,0-3.57-3.57Z"/><path d="M85.38,54.6H82.72a2.53,2.53,0,0,1-2.53-2.52V49.41a2.53,2.53,0,0,1,2.53-2.52h2.66a2.52,2.52,0,0,1,2.53,2.52v2.67A2.52,2.52,0,0,1,85.38,54.6Zm-2.66-5.71a.53.53,0,0,0-.53.52v2.67a.52.52,0,0,0,.53.52h2.66a.52.52,0,0,0,.53-.52V49.41a.53.53,0,0,0-.53-.52Z"/><path d="M73.37,54.6H70.7a2.52,2.52,0,0,1-2.52-2.52V49.41a2.52,2.52,0,0,1,2.52-2.52h2.67a2.52,2.52,0,0,1,2.52,2.52v2.67A2.52,2.52,0,0,1,73.37,54.6ZM70.7,48.89a.52.52,0,0,0-.52.52v2.67a.52.52,0,0,0,.52.52h2.67a.52.52,0,0,0,.52-.52V49.41a.52.52,0,0,0-.52-.52Z"/><path d="M61.35,54.6H58.68a2.52,2.52,0,0,1-2.52-2.52V49.41a2.52,2.52,0,0,1,2.52-2.52h2.67a2.52,2.52,0,0,1,2.52,2.52v2.67A2.52,2.52,0,0,1,61.35,54.6Zm-2.67-5.71a.53.53,0,0,0-.52.52v2.67a.52.52,0,0,0,.52.52h2.67a.52.52,0,0,0,.52-.52V49.41a.52.52,0,0,0-.52-.52Z"/><path d="M37.32,54.6H34.65a2.52,2.52,0,0,1-2.52-2.52V49.41a2.52,2.52,0,0,1,2.52-2.52h2.67a2.52,2.52,0,0,1,2.52,2.52v2.67A2.52,2.52,0,0,1,37.32,54.6Zm-2.67-5.71a.52.52,0,0,0-.52.52v2.67a.52.52,0,0,0,.52.52h2.67a.52.52,0,0,0,.52-.52V49.41a.53.53,0,0,0-.52-.52Z"/><path d="M25.3,54.6H22.63a2.52,2.52,0,0,1-2.52-2.52V49.41a2.52,2.52,0,0,1,2.52-2.52H25.3a2.52,2.52,0,0,1,2.52,2.52v2.67A2.52,2.52,0,0,1,25.3,54.6Zm-2.67-5.71a.52.52,0,0,0-.52.52v2.67a.52.52,0,0,0,.52.52H25.3a.52.52,0,0,0,.52-.52V49.41a.52.52,0,0,0-.52-.52Z"/><path d="M13.28,54.6H10.62a2.53,2.53,0,0,1-2.53-2.52V49.41a2.53,2.53,0,0,1,2.53-2.52h2.66a2.53,2.53,0,0,1,2.53,2.52v2.67A2.53,2.53,0,0,1,13.28,54.6Zm-2.66-5.71a.53.53,0,0,0-.53.52v2.67a.52.52,0,0,0,.53.52h2.66a.52.52,0,0,0,.53-.52V49.41a.53.53,0,0,0-.53-.52Z"/><path d="M73.15,66.3H70.49A2.52,2.52,0,0,1,68,63.78V61.11a2.52,2.52,0,0,1,2.53-2.52h2.66a2.53,2.53,0,0,1,2.53,2.52v2.67A2.53,2.53,0,0,1,73.15,66.3Zm-2.66-5.71a.52.52,0,0,0-.53.52v2.67a.53.53,0,0,0,.53.52h2.66a.53.53,0,0,0,.53-.52V61.11a.52.52,0,0,0-.53-.52Z"/><path d="M84.84,77.19H82.18a2.53,2.53,0,0,1-2.53-2.53V61.11a2.53,2.53,0,0,1,2.53-2.52h2.66a2.53,2.53,0,0,1,2.53,2.52V74.66A2.53,2.53,0,0,1,84.84,77.19Zm-2.66-16.6a.52.52,0,0,0-.53.52V74.66a.53.53,0,0,0,.53.53h2.66a.53.53,0,0,0,.53-.53V61.11a.52.52,0,0,0-.53-.52Z"/><path d="M39,77.19H10.62a2.53,2.53,0,0,1-2.53-2.53V72a2.52,2.52,0,0,1,2.53-2.52H39A2.53,2.53,0,0,1,41.5,72v2.66A2.53,2.53,0,0,1,39,77.19ZM10.62,71.48a.52.52,0,0,0-.53.52v2.66a.53.53,0,0,0,.53.53H39a.53.53,0,0,0,.53-.53V72a.52.52,0,0,0-.53-.52Z"/><path d="M73.38,77.19H70.71a2.52,2.52,0,0,1-2.52-2.53V72a2.52,2.52,0,0,1,2.52-2.52h2.67A2.52,2.52,0,0,1,75.9,72v2.66A2.52,2.52,0,0,1,73.38,77.19Zm-2.67-5.71a.52.52,0,0,0-.52.52v2.66a.52.52,0,0,0,.52.53h2.67a.53.53,0,0,0,.52-.53V72a.52.52,0,0,0-.52-.52Z"/><path d="M61.46,66.3H58.79a2.52,2.52,0,0,1-2.52-2.52V61.11a2.52,2.52,0,0,1,2.52-2.52h2.67A2.52,2.52,0,0,1,64,61.11v2.67A2.52,2.52,0,0,1,61.46,66.3Zm-2.67-5.71a.52.52,0,0,0-.52.52v2.67a.53.53,0,0,0,.52.52h2.67a.52.52,0,0,0,.52-.52V61.11a.52.52,0,0,0-.52-.52Z"/><path d="M61.91,77.19H59.24a2.52,2.52,0,0,1-2.52-2.53V72a2.52,2.52,0,0,1,2.52-2.52h2.67A2.52,2.52,0,0,1,64.43,72v2.66A2.52,2.52,0,0,1,61.91,77.19Zm-2.67-5.71a.52.52,0,0,0-.52.52v2.66a.52.52,0,0,0,.52.53h2.67a.52.52,0,0,0,.52-.53V72a.52.52,0,0,0-.52-.52Z"/><path d="M50.44,77.19H47.77a2.52,2.52,0,0,1-2.52-2.53V72a2.52,2.52,0,0,1,2.52-2.52h2.67A2.52,2.52,0,0,1,53,72v2.66A2.52,2.52,0,0,1,50.44,77.19Zm-2.67-5.71a.52.52,0,0,0-.52.52v2.66a.53.53,0,0,0,.52.53h2.67a.52.52,0,0,0,.52-.53V72a.52.52,0,0,0-.52-.52Z"/><path d="M26.39,66.3H23.72a2.52,2.52,0,0,1-2.52-2.52V61.11a2.52,2.52,0,0,1,2.52-2.52h2.67a2.52,2.52,0,0,1,2.52,2.52v2.67A2.52,2.52,0,0,1,26.39,66.3Zm-2.67-5.71a.52.52,0,0,0-.52.52v2.67a.52.52,0,0,0,.52.52h2.67a.52.52,0,0,0,.52-.52V61.11a.52.52,0,0,0-.52-.52Z"/><path d="M38.08,66.3H35.41a2.52,2.52,0,0,1-2.52-2.52V61.11a2.52,2.52,0,0,1,2.52-2.52h2.67a2.52,2.52,0,0,1,2.52,2.52v2.67A2.52,2.52,0,0,1,38.08,66.3Zm-2.67-5.71a.52.52,0,0,0-.52.52v2.67a.52.52,0,0,0,.52.52h2.67a.52.52,0,0,0,.52-.52V61.11a.52.52,0,0,0-.52-.52Z"/><path d="M49.33,54.6H46.67a2.53,2.53,0,0,1-2.53-2.52V49.41a2.53,2.53,0,0,1,2.53-2.52h2.66a2.53,2.53,0,0,1,2.53,2.52v2.67A2.53,2.53,0,0,1,49.33,54.6Zm-2.66-5.71a.53.53,0,0,0-.53.52v2.67a.52.52,0,0,0,.53.52h2.66a.52.52,0,0,0,.53-.52V49.41a.53.53,0,0,0-.53-.52Z"/><path d="M49.77,66.3H47.1a2.52,2.52,0,0,1-2.52-2.52V61.11a2.52,2.52,0,0,1,2.52-2.52h2.67a2.52,2.52,0,0,1,2.52,2.52v2.67A2.52,2.52,0,0,1,49.77,66.3ZM47.1,60.59a.52.52,0,0,0-.52.52v2.67a.53.53,0,0,0,.52.52h2.67a.52.52,0,0,0,.52-.52V61.11a.52.52,0,0,0-.52-.52Z"/><path d="M16.11,66.3H10.62a2.53,2.53,0,0,1-2.53-2.52V61.11a2.53,2.53,0,0,1,2.53-2.52h5.49a2.52,2.52,0,0,1,2.52,2.52v2.67A2.52,2.52,0,0,1,16.11,66.3Zm-5.49-5.71a.52.52,0,0,0-.53.52v2.67a.53.53,0,0,0,.53.52h5.49a.52.52,0,0,0,.52-.52V61.11a.52.52,0,0,0-.52-.52Z"/><path d="M82.68,36.26H75.11a2,2,0,0,1-2-2v-20a2,2,0,0,1,2-2h7.57a2,2,0,0,1,2,2v20A2,2,0,0,1,82.68,36.26Zm0-22H75.11v20h7.57Z"/><path d="M74.11,32.73H60.41a1,1,0,0,1-1-1V16.79a1,1,0,0,1,1-1h13.7a1,1,0,0,1,1,1V31.73A1,1,0,0,1,74.11,32.73Zm-12.7-2h11.7V17.79H61.41Z"/><path d="M67.13,21.92h-2a1,1,0,0,1,0-2h2a1,1,0,0,1,0,2Z"/><path d="M67.13,28.59h-2a1,1,0,0,1,0-2h2a1,1,0,0,1,0,2Z"/><path d="M10.91,26.46a1,1,0,0,1-.7-1.71,17,17,0,0,1,24,0,1,1,0,1,1-1.42,1.42,15,15,0,0,0-21.15,0A1,1,0,0,1,10.91,26.46Z"/><path d="M15.73,31.27A1,1,0,0,1,15,31a1,1,0,0,1,0-1.41,10.15,10.15,0,0,1,14.35,0A1,1,0,0,1,28,31a8.15,8.15,0,0,0-11.52,0A1,1,0,0,1,15.73,31.27Z"/><path d="M20.54,36.09a1,1,0,0,1-.7-.3,1,1,0,0,1,0-1.41,3.34,3.34,0,0,1,4.72,0,1,1,0,1,1-1.42,1.41,1.34,1.34,0,0,0-1.89,0A1,1,0,0,1,20.54,36.09Z"/></svg>